<svg id="Layer_1" data-name="Layer 1" xmlns="http://www.w3.org/2000/svg" viewBox="0 0 621.04 94.51"><defs><style>.cls-1{fill:#ffc21e;}.cls-2{fill:#0093c0;}.cls-3{fill:#fcb91c;}.cls-4{fill:#df9027;}.cls-5{fill:#ac722a;}.cls-6{fill:#ffc741;}</style></defs><title>OroPlatform-Logo</title><path class="cls-1" d="M142.72,162v-21.4c0-10.88,5.4-17.52,24.75-17.52s24.75,6.5,24.75,17.38V161.8c0,10.88-5.4,17.59-24.75,17.59S142.72,172.89,142.72,162Zm40.08-1.25v-19.2c0-8.25-3.28-11-15.33-11s-15.41,2.92-15.41,11.17v19.2c0,8.25,3.29,11,15.41,11S182.8,169,182.8,160.77Z" transform="translate(-29.28 -102.97)"/><path class="cls-1" d="M199.52,171.14l4.09-.14V131.5l-4.09-.15v-7.08h26.21c13.58,0,18.76,3.28,18.76,10.88v6.42c0,6-3.72,10.3-11.61,10.81,6.65.58,11.25,1.68,11.83,7.88l1,10.74,4.38.22v7H237.48a3.34,3.34,0,0,1-1-2.55l-1-12.78c-.44-5.62-4.38-7.08-13.87-7.08H213V171l4,.14v7.08H199.52Zm24.38-22.56c8.91,0,11.39-1.9,11.39-6.57V137.7c0-4.38-1.67-6.2-11.39-6.2H213v17.08Z" transform="translate(-29.28 -102.97)"/><path class="cls-1" d="M255.44,162v-21.4c0-10.88,5.4-17.52,24.75-17.52s24.75,6.5,24.75,17.38V161.8c0,10.88-5.4,17.59-24.75,17.59S255.44,172.89,255.44,162Zm40.09-1.25v-19.2c0-8.25-3.29-11-15.34-11s-15.4,2.92-15.4,11.17v19.2c0,8.25,3.28,11,15.4,11S295.53,169,295.53,160.77Z" transform="translate(-29.28 -102.97)"/><path class="cls-2" d="M312.46,173.26l4.53-.07V129.52l-4.53-.14v-5h23.88c13.94,0,18.69,3,18.69,12.27v6.86c0,9.28-6.21,12.71-18.69,12.71H323.56v16.94l4.6.07v5h-15.7Zm22.71-22c10.58,0,13.43-2.56,13.43-8.4v-5.47c0-5.77-2.41-7.82-13.43-7.82H323.56v21.69Z" transform="translate(-29.28 -102.97)"/><path class="cls-2" d="M361.59,173.48l4.31-.15V125.8l-4.89-.14v-5h9.93a1.27,1.27,0,0,1,1.24,1.39v51.25l4.31.15v4.74h-14.9Z" transform="translate(-29.28 -102.97)"/><path class="cls-2" d="M382.84,167.93v-3.58c0-7.52,4.53-9.85,15.41-12.48l14.09-3.51v-4.45c0-3.8-1.9-6-11.39-6s-11.61,2.12-11.61,5.7c0,.8.36,3.14.36,3.14h-4.45a6.66,6.66,0,0,1-1.53-4.53c0-5.84,3.94-9.2,17.81-9.2s17.09,3.36,17.09,10.37v29.93l4.3.15v4.74h-8.68c-.73,0-1.17-.51-1.25-1.31l-.36-4.89h-.15c-.44,2.77-3.06,7.37-14,7.37C388,179.39,382.84,175,382.84,167.93Zm29.5-.88V152.74l-12,3.07c-7.37,2-11.24,3.43-11.24,8.4v3.14c0,4.81,3.28,7.3,11.24,7.3C409.42,174.65,412.34,170.41,412.34,167.05Z" transform="translate(-29.28 -102.97)"/><path class="cls-2" d="M432.78,169.32V139.16h-6.65v-4.67l6.65-.29v-7.74l5.47-1.54h.81v9.28h10.66v5H439.06v29.57c0,4,1.9,5.55,5.4,5.55a9.25,9.25,0,0,0,5.62-1.68l.37,4.38c-1.1,1-3.65,2.12-7.3,2.12C436.94,179.1,432.78,176.62,432.78,169.32Z" transform="translate(-29.28 -102.97)"/><path class="cls-2" d="M456.14,173.48l4.45-.15V139.16h-6.2v-4.74l6.2-.22v-4.31c0-6.86,4.75-10.22,11.76-10.22a22.21,22.21,0,0,1,7.88,1.31l-.43,4.53a19.71,19.71,0,0,0-6.06-.88c-4.38,0-6.87,1.46-6.87,5.62v3.95h8.69v5h-8.69v34.17l4.68.15v4.74H456.14Z" transform="translate(-29.28 -102.97)"/><path class="cls-2" d="M481.25,164V148.36c0-9.2,4.68-15.33,19.79-15.33s19.72,5,19.72,15.33V164c0,9.2-4.68,15.4-19.72,15.4S481.25,174.35,481.25,164Zm33.15-.51V149c0-7.38-2.92-10.81-13.36-10.81s-13.51,4.38-13.51,10.81v14.53c0,7.3,3.07,10.8,13.51,10.8S514.4,169.83,514.4,163.48Z" transform="translate(-29.28 -102.97)"/><path class="cls-2" d="M527.91,173.48l4.45-.15v-34l-4.45-.15v-5h9c.8,0,1.17.51,1.31,1.31l.29,6.57h.15c.51-5.84,4.53-9.05,9.64-9.05a8.07,8.07,0,0,1,3.8.73v6a8.15,8.15,0,0,0-4.31-.95c-5.19,0-9.13,3.06-9.2,11.1v23.43l4.82.15v4.74H527.91Z" transform="translate(-29.28 -102.97)"/><path class="cls-2" d="M596.76,141.13c1.31-5.47,5.62-8.1,14.82-8.1,9.93,0,14.67,3.29,14.67,11.75v28.55l4.38.15v4.74H615.38v-4.74l4.59-.15v-27.6c0-5.62-2.77-7.74-10.29-7.74s-12.48,2.63-12.48,10.08v25.26l4.59.15v4.74H586.32v-4.74l4.6-.15v-27.6c0-5.62-2.71-7.74-10.3-7.74s-12.41,2.63-12.41,10.08v25.26l4.6.15v4.74H557.7v-4.74l4.23-.15v-34l-4.23-.15v-5h9c.73,0,1.16.51,1.16,1.31l.22,5.33h.15c1.31-5.25,5.18-7.81,14.38-7.81,8.76,0,13.22,2.34,14.09,8.1Z" transform="translate(-29.28 -102.97)"/><path class="cls-2" d="M633.45,131.32h-1.86V121.5h-3.36v-1.6h8.58v1.6h-3.36Z" transform="translate(-29.28 -102.97)"/><path class="cls-2" d="M643.5,131.32l-3.31-9.54h-.07c.09,1.42.14,2.75.14,4v5.55h-1.7V119.9h2.64l3.17,9.09h0l3.27-9.09h2.64v11.42h-1.8v-5.65c0-.56,0-1.3.05-2.22s0-1.46.07-1.65h-.06l-3.43,9.52Z" transform="translate(-29.28 -102.97)"/><path class="cls-3" d="M49.93,161.63l38.56-37.81a10.5,10.5,0,0,1,14.85.15l-17.5-17.85A10.49,10.49,0,0,0,71,106L32.43,143.78a10.49,10.49,0,0,0-.15,14.84l17.51,17.86A10.5,10.5,0,0,1,49.93,161.63Z" transform="translate(-29.28 -102.97)"/><path class="cls-4" d="M64.64,176.62l38.55-37.81a10.49,10.49,0,0,0,.15-14.84l17.5,17.85a10.49,10.49,0,0,1-.14,14.84L82.14,194.47a10.5,10.5,0,0,1-14.85-.14l-17.5-17.85A10.5,10.5,0,0,0,64.64,176.62Z" transform="translate(-29.28 -102.97)"/><path class="cls-5" d="M120.84,141.82,103.34,124a10.49,10.49,0,0,1-.15,14.84l-1.07,1.05,10.15,10.36a10.5,10.5,0,0,1-.14,14.85l8.57-8.41A10.49,10.49,0,0,0,120.84,141.82Z" transform="translate(-29.28 -102.97)"/><path class="cls-6" d="M77.27,114.52l10.15,10.35,1.07-1.05a10.5,10.5,0,0,1,14.85.15l-17.5-17.85A10.49,10.49,0,0,0,71,106l-1.07,1Z" transform="translate(-29.28 -102.97)"/></svg>
