<svg id="Layer_1" data-name="Layer 1" xmlns="http://www.w3.org/2000/svg" xmlns:xlink="http://www.w3.org/1999/xlink" viewBox="0 0 904 903.8"><defs><style>.cls-1{fill:none;}.cls-2{clip-path:url(#clip-path);}.cls-3{fill:#4d4d4f;}.cls-4{fill:#fcba1e;}</style><clipPath id="clip-path" transform="translate(0 -0.11)"><rect class="cls-1" width="904" height="904"/></clipPath></defs><title>01 - 30</title><g class="cls-2"><path class="cls-3" d="M699.72,335a8,8,0,1,0-14.44,6.85,257.13,257.13,0,0,1-348,339.7A259.67,259.67,0,0,1,258,619.43l31.56,10.51a8,8,0,1,0,5.05-15.17l-56.78-18.93a8,8,0,0,0-10.44,8.72l9.46,66.25a8,8,0,0,0,7.9,6.87,9,9,0,0,0,1.15-.08,8,8,0,0,0,6.78-9.05l-5.28-37a275.51,275.51,0,0,0,82.65,64.24A273.11,273.11,0,0,0,699.72,335" transform="translate(0 -0.11)"/><path class="cls-3" d="M678.6,299.44l-9.46-66.25a8,8,0,0,0-15.84,2.26l5.27,36.93A273,273,0,0,0,206.28,569a8,8,0,1,0,14.44-6.86A257,257,0,0,1,648,284.56l-31.54-10.5a8,8,0,1,0-5,15.17l56.78,18.93a7.88,7.88,0,0,0,2.53.41,8,8,0,0,0,7.92-9.13" transform="translate(0 -0.11)"/><path class="cls-3" d="M453,221.74a8,8,0,0,0-8,8v34.19a8,8,0,1,0,16,0V229.74a8,8,0,0,0-8-8" transform="translate(0 -0.11)"/><path class="cls-3" d="M453,632.07a8,8,0,0,0-8,8v34.19a8,8,0,0,0,16,0V640.07a8,8,0,0,0-8-8" transform="translate(0 -0.11)"/><path class="cls-3" d="M675.26,444H641.07a8,8,0,0,0,0,16h34.19a8,8,0,0,0,0-16" transform="translate(0 -0.11)"/><path class="cls-3" d="M264.93,444H230.74a8,8,0,0,0,0,16h34.19a8,8,0,1,0,0-16" transform="translate(0 -0.11)"/><path class="cls-4" d="M366.8,557.35l-11.95-5.76a38.48,38.48,0,0,1-18.07-18q-6.12-12.24-7-32h20.73q.72,12.81,4.61,20.73A24.89,24.89,0,0,0,366.44,534q7.43,3.75,18.94,3.75,15.69,0,24.26-8.5t8.56-24V487.37q0-15-8.06-23.17T387.54,456H372.71V436.7h14.83q13,0,20.08-6.92t7.13-19.72V391.92q0-13.68-7.7-21.17t-21.82-7.48q-9.8,0-16.34,3.67a25.12,25.12,0,0,0-10.29,11.37Q354.85,386,354,398.54H333.26q1-19.29,7-31.39a38.13,38.13,0,0,1,17.28-17.78q11.3-5.69,28.43-5.68,23.61,0,36.57,12.74t13,35.92V410.2a38,38,0,0,1-5.9,20.52A43.42,43.42,0,0,1,413,445.91a34,34,0,0,1,19.08,14.76q6.84,10.88,6.84,26.85v17.85q0,16.41-6.27,28.08a41.72,41.72,0,0,1-18.28,17.78q-12,6.12-29,6.12Z" transform="translate(0 -0.11)"/><path class="cls-4" d="M487.17,543.24q-13.68-14.12-13.68-39.6V397.1q0-25.49,13.75-39.52t39.52-14q25.77,0,39.52,14T580,397.1V503.64q0,25.64-13.75,39.67t-39.52,14q-25.92,0-39.59-14.11m63.92-14.11q8.22-8.93,8.21-25.49V397.1q0-16.41-8.21-25.41t-24.33-9q-16.28,0-24.4,9t-8.14,25.41V503.64q0,16.56,8.21,25.49t24.33,8.93q16.13,0,24.33-8.93" transform="translate(0 -0.11)"/><path class="cls-3" d="M461.33,903.9a8,8,0,0,1-.16-16c3.94-.09,7.93-.22,11.85-.41a8,8,0,0,1,.76,16c-4.06.2-8.2.34-12.28.42Zm-30.17-.38h-.38c-4-.19-8.18-.43-12.26-.73a8,8,0,1,1,1.16-16c3.94.29,7.93.53,11.84.71a8,8,0,0,1-.36,16Zm72.3-2.47a8,8,0,0,1-.9-15.95c3.91-.45,7.87-1,11.75-1.52a8,8,0,1,1,2.27,15.84c-4,.58-8.13,1.11-12.19,1.57A7.26,7.26,0,0,1,503.46,901.05Zm-114.35-1.47a8.71,8.71,0,0,1-1.13-.08c-4.05-.57-8.14-1.21-12.15-1.89a8,8,0,0,1,2.68-15.78c3.87.66,7.81,1.27,11.71,1.83a8,8,0,0,1-1.11,15.92Zm156-5.37a8,8,0,0,1-1.66-15.82c3.83-.82,7.72-1.71,11.55-2.64a8,8,0,0,1,3.77,15.55c-4,1-8,1.89-12,2.74A8,8,0,0,1,545.15,894.21Zm-197.53-2.55a8.11,8.11,0,0,1-1.88-.22c-4-1-8-2-11.91-3.05A8,8,0,1,1,338,873c3.81,1,7.67,2,11.48,2.93a8,8,0,0,1-1.86,15.78ZM586,883.42a8,8,0,0,1-2.41-15.63c3.77-1.18,7.55-2.44,11.26-3.72a8,8,0,0,1,5.24,15.11c-3.85,1.34-7.77,2.64-11.67,3.87A8.18,8.18,0,0,1,586,883.42Zm-278.92-3.61a7.9,7.9,0,0,1-2.61-.44c-3.87-1.34-7.77-2.74-11.61-4.19a8,8,0,1,1,5.64-15c3.69,1.39,7.46,2.75,11.19,4a8,8,0,0,1-2.61,15.57Zm318.51-11a8,8,0,0,1-3.14-15.36c3.62-1.54,7.25-3.14,10.82-4.77a8,8,0,0,1,6.66,14.54c-3.7,1.69-7.47,3.36-11.21,4.95A8.11,8.11,0,0,1,625.58,868.79ZM267.77,864.1a8,8,0,0,1-3.32-.73c-3.73-1.7-7.48-3.47-11.14-5.27a8,8,0,0,1,7-14.37c3.54,1.73,7.15,3.44,10.75,5.09a8,8,0,0,1-3.33,15.28Zm395.79-13.64a8,8,0,0,1-3.82-15c3.46-1.89,6.94-3.83,10.32-5.79a8,8,0,0,1,8,13.85c-3.5,2-7.1,4-10.69,6A8.12,8.12,0,0,1,663.56,850.46Zm-433.39-5.75a7.93,7.93,0,0,1-4-1.08c-3.54-2-7.09-4.16-10.58-6.3A8,8,0,0,1,224,823.7c3.36,2.06,6.79,4.11,10.2,6.08a8,8,0,0,1-4,14.93Zm469.48-16.13a8,8,0,0,1-4.48-14.64c3.25-2.19,6.53-4.45,9.74-6.74a8,8,0,0,1,9.29,13c-3.33,2.38-6.72,4.73-10.09,7A8,8,0,0,1,699.65,828.58Zm-505-6.75a8,8,0,0,1-4.63-1.48c-3.34-2.38-6.68-4.83-9.92-7.28a8,8,0,1,1,9.63-12.77c3.14,2.36,6.35,4.72,9.57,7a8,8,0,0,1-4.65,14.51Zm538.9-18.46a8,8,0,0,1-5.08-14.19c3-2.48,6.08-5,9.06-7.64A8,8,0,0,1,748,793.63c-3.09,2.68-6.25,5.34-9.39,7.92A8,8,0,0,1,733.51,803.37ZM161.4,795.7a8,8,0,0,1-5.24-2c-3.07-2.67-6.16-5.42-9.18-8.18a8,8,0,1,1,10.8-11.8c2.91,2.66,5.89,5.31,8.86,7.89a8,8,0,0,1-5.24,14Zm603.45-20.64a8,8,0,0,1-5.64-13.68c2.8-2.78,5.59-5.62,8.3-8.46a8,8,0,1,1,11.58,11c-2.81,2.94-5.71,5.9-8.6,8.78A8,8,0,0,1,764.85,775.06Zm-634-8.5a8,8,0,0,1-5.79-2.48c-2.82-3-5.63-6-8.36-9a8,8,0,1,1,11.86-10.73c2.64,2.91,5.35,5.83,8.07,8.68a8,8,0,0,1-5.78,13.53ZM793.38,743.9a8,8,0,0,1-6.14-13.11c2.52-3,5-6.14,7.47-9.22a8,8,0,1,1,12.56,9.9c-2.51,3.19-5.12,6.41-7.73,9.55A8,8,0,0,1,793.38,743.9Zm-690.25-9.24a8,8,0,0,1-6.29-3c-2.52-3.21-5-6.48-7.47-9.75a8,8,0,0,1,12.83-9.56c2.35,3.15,4.77,6.31,7.21,9.4a8,8,0,0,1-6.28,12.95Zm715.72-24.48a8,8,0,0,1-6.6-12.51c2.24-3.28,4.45-6.61,6.57-9.9a8,8,0,0,1,13.45,8.67c-2.2,3.41-4.49,6.86-6.81,10.25A8,8,0,0,1,818.85,710.18ZM78.6,700.31a8,8,0,0,1-6.73-3.67c-2.21-3.42-4.4-6.92-6.51-10.4A8,8,0,1,1,79,677.94c2,3.35,4.15,6.73,6.28,10A8,8,0,0,1,82.92,699,7.9,7.9,0,0,1,78.6,700.31ZM841,674.18a7.9,7.9,0,0,1-3.85-1A8,8,0,0,1,834,662.31c1.89-3.43,3.77-6.95,5.59-10.48a8,8,0,0,1,14.22,7.35c-1.89,3.65-3.84,7.31-5.8,10.86A8,8,0,0,1,841,674.18ZM57.44,663.8a8,8,0,0,1-7.11-4.33c-1.88-3.62-3.73-7.31-5.49-11a8,8,0,0,1,14.41-7c1.7,3.52,3.48,7.08,5.29,10.57a8,8,0,0,1-7.1,11.68Zm802.22-27.59A8,8,0,0,1,852.32,625c1.57-3.63,3.11-7.33,4.57-11a8,8,0,0,1,14.85,6c-1.51,3.79-3.11,7.62-4.74,11.38A8,8,0,0,1,859.66,636.21ZM39.86,625.46a8,8,0,0,1-7.43-5c-1.52-3.79-3-7.65-4.43-11.47a8,8,0,1,1,15-5.55c1.36,3.68,2.8,7.4,4.27,11.06a8,8,0,0,1-4.44,10.4A7.86,7.86,0,0,1,39.86,625.46Zm834.73-28.85a8.15,8.15,0,0,1-2.46-.39A8,8,0,0,1,867,586.15c1.21-3.75,2.38-7.56,3.49-11.33a8,8,0,1,1,15.35,4.5c-1.15,3.9-2.36,7.86-3.62,11.74A8,8,0,0,1,874.59,596.61ZM26,585.56a8,8,0,0,1-7.67-5.75c-1.16-3.92-2.27-7.9-3.31-11.84a8,8,0,0,1,15.47-4.09c1,3.79,2.07,7.63,3.19,11.42A8,8,0,0,1,26,585.56Zm859.64-29.73a8.54,8.54,0,0,1-1.73-.18,8,8,0,0,1-6.09-9.53c.85-3.86,1.65-7.77,2.39-11.62a8,8,0,0,1,15.71,3c-.76,4-1.6,8-2.48,12A8,8,0,0,1,885.64,555.83ZM16,544.51A8,8,0,0,1,8.18,538c-.77-4-1.5-8.07-2.16-12.1a8,8,0,0,1,15.78-2.6c.64,3.89,1.35,7.82,2.09,11.67A8,8,0,0,1,16,544.51ZM892.74,514.2a8.18,8.18,0,0,1-1-.06,8,8,0,0,1-7-8.91c.47-3.93.9-7.9,1.27-11.79a8,8,0,0,1,15.93,1.5c-.38,4-.83,8.15-1.32,12.22A8,8,0,0,1,892.74,514.2ZM10,502.7a8,8,0,0,1-8-7.24c-.38-4-.72-8.16-1-12.25a8,8,0,0,1,16-1.09c.27,3.94.6,7.92,1,11.82a8,8,0,0,1-7.2,8.72A6.74,6.74,0,0,1,10,502.7Zm885.82-30.63h-.22a8,8,0,0,1-7.78-8.21c.11-3.92.16-7.91.16-11.86v-1a8,8,0,0,1,8-8h0a8,8,0,0,1,8,8v1c0,4.09-.06,8.22-.16,12.29A8,8,0,0,1,895.84,472.07ZM8,460.5a8,8,0,0,1-8-8V452c0-3.94.05-7.9.15-11.79a8,8,0,1,1,16,.41c-.1,3.75-.15,7.58-.15,11.36v.5A8,8,0,0,1,8,460.5Zm886.92-31.66a8,8,0,0,1-8-7.45c-.27-3.91-.6-7.89-1-11.82A8,8,0,1,1,901.89,408c.39,4.07.73,8.19,1,12.25a8,8,0,0,1-7.43,8.53Zm-885-10.53q-.37,0-.75,0A8,8,0,0,1,2,409.57c.37-4.07.81-8.18,1.3-12.22a8,8,0,1,1,15.89,1.91c-.47,3.9-.9,7.87-1.26,11.79A8,8,0,0,1,9.94,418.31ZM890,386.89a8,8,0,0,1-7.88-6.7c-.65-3.89-1.35-7.81-2.1-11.66a8,8,0,1,1,15.71-3c.77,4,1.5,8.06,2.17,12.1a8,8,0,0,1-6.58,9.2A8.5,8.5,0,0,1,890,386.89ZM15.85,376.49a7.63,7.63,0,0,1-1.5-.15A8,8,0,0,1,8,367c.77-4,1.59-8.06,2.47-12a8,8,0,1,1,15.63,3.42c-.84,3.84-1.64,7.75-2.38,11.61A8,8,0,0,1,15.85,376.49Zm865.27-30.9a8,8,0,0,1-7.73-5.94c-1-3.8-2.09-7.64-3.2-11.42a8,8,0,0,1,15.34-4.53c1.16,3.92,2.27,7.9,3.32,11.84a8,8,0,0,1-5.67,9.78A7.72,7.72,0,0,1,881.12,345.59ZM25.72,335.42a7.89,7.89,0,0,1-2.24-.33A8,8,0,0,1,18,325.17c1.14-3.9,2.35-7.86,3.6-11.75a8,8,0,0,1,15.23,4.9c-1.2,3.75-2.37,7.57-3.47,11.34A8,8,0,0,1,25.72,335.42Zm842.6-30.08a8,8,0,0,1-7.5-5.22c-1.36-3.67-2.81-7.39-4.28-11.05a8,8,0,1,1,14.84-6c1.53,3.79,3,7.65,4.44,11.46a8,8,0,0,1-7.5,10.79Zm-828.83-9.9a8,8,0,0,1-7.42-11c1.51-3.79,3.1-7.62,4.72-11.38a8,8,0,1,1,14.69,6.33c-1.56,3.63-3.09,7.33-4.55,11A8,8,0,0,1,39.49,295.44Zm812.26-28.92a8,8,0,0,1-7.21-4.51c-1.7-3.52-3.49-7.07-5.3-10.56a8,8,0,0,1,14.2-7.38c1.88,3.63,3.73,7.31,5.5,11a8,8,0,0,1-3.71,10.69A7.87,7.87,0,0,1,851.75,266.52ZM57,256.94a7.86,7.86,0,0,1-3.65-.89,8,8,0,0,1-3.45-10.77c1.87-3.63,3.81-7.29,5.79-10.87a8,8,0,1,1,14,7.71c-1.9,3.46-3.78,7-5.58,10.49A8,8,0,0,1,57,256.94Zm774.51-27.46a8,8,0,0,1-6.84-3.84c-2-3.35-4.15-6.72-6.29-10a8,8,0,1,1,13.44-8.69c2.21,3.43,4.41,6.92,6.52,10.39a8,8,0,0,1-6.83,12.16ZM78.18,220.32A8,8,0,0,1,71.46,208c2.2-3.43,4.49-6.89,6.79-10.26a8,8,0,0,1,13.22,9c-2.22,3.26-4.42,6.59-6.55,9.9A8,8,0,0,1,78.18,220.32Zm729.74-25.81a8,8,0,0,1-6.42-3.21c-2.35-3.15-4.78-6.31-7.21-9.39A8,8,0,1,1,806.84,172c2.53,3.19,5,6.47,7.48,9.73a8,8,0,0,1-6.4,12.79ZM102.7,185.88a8,8,0,0,1-6.29-12.95c2.52-3.2,5.12-6.42,7.73-9.56a8,8,0,0,1,12.31,10.22c-2.52,3-5,6.14-7.46,9.23A8,8,0,0,1,102.7,185.88Zm678.37-24a8,8,0,0,1-5.93-2.63c-2.64-2.92-5.36-5.84-8.08-8.68a8,8,0,0,1,11.56-11.06c2.82,2.95,5.63,6,8.37,9a8,8,0,0,1-5.92,13.38Zm-650.72-8a8,8,0,0,1-5.79-13.52c2.81-2.95,5.7-5.91,8.59-8.79A8,8,0,0,1,144.44,143c-2.79,2.77-5.58,5.63-8.29,8.47A8,8,0,0,1,130.35,153.93ZM751.25,132a8,8,0,0,1-5.39-2.09C743,127.25,740,124.6,737,122a8,8,0,1,1,10.46-12.1c3.09,2.67,6.18,5.41,9.19,8.16A8,8,0,0,1,751.25,132ZM160.9,124.74a8,8,0,0,1-5.25-14c3.07-2.67,6.23-5.34,9.37-7.93a8,8,0,1,1,10.17,12.36c-3,2.5-6.08,5.07-9.05,7.65A8,8,0,0,1,160.9,124.74ZM718.72,105a8,8,0,0,1-4.8-1.6c-3.15-2.37-6.37-4.73-9.58-7a8,8,0,1,1,9.27-13c3.33,2.36,6.67,4.81,9.93,7.26A8,8,0,0,1,718.72,105ZM194.05,98.58a8,8,0,0,1-4.66-14.51c3.31-2.36,6.7-4.72,10.08-7a8,8,0,1,1,8.95,13.26c-3.26,2.2-6.53,4.47-9.72,6.76A8,8,0,0,1,194.05,98.58ZM683.77,81.23a8,8,0,0,1-4.17-1.18c-3.36-2.06-6.79-4.11-10.21-6.07a8,8,0,0,1,8-13.87c3.54,2,7.1,4.16,10.58,6.3a8,8,0,0,1-4.19,14.82ZM229.51,75.69a8,8,0,0,1-4-14.92c3.52-2.05,7.12-4.07,10.69-6a8,8,0,0,1,7.65,14.05c-3.45,1.88-6.92,3.83-10.31,5.8A8,8,0,0,1,229.51,75.69Zm417.2-14.82a8.05,8.05,0,0,1-3.51-.82c-3.53-1.73-7.15-3.43-10.74-5.07a8,8,0,1,1,6.63-14.56c3.73,1.7,7.48,3.47,11.14,5.26a8,8,0,0,1-3.52,15.19ZM267,56.28A8,8,0,0,1,263.62,41c3.7-1.7,7.47-3.37,11.21-5a8,8,0,0,1,6.27,14.71c-3.6,1.54-7.23,3.15-10.8,4.79A8.09,8.09,0,0,1,267,56.28Zm340.9-12.15a8.19,8.19,0,0,1-2.81-.51c-3.69-1.39-7.46-2.74-11.19-4a8,8,0,0,1,5.2-15.13c3.87,1.33,7.78,2.73,11.61,4.17a8,8,0,0,1-2.81,15.49ZM306.07,40.54A8,8,0,0,1,303.44,25c3.86-1.34,7.79-2.65,11.67-3.88A8,8,0,0,1,320,36.35c-3.74,1.19-7.53,2.45-11.25,3.74A7.82,7.82,0,0,1,306.07,40.54ZM567.61,31.2a8.25,8.25,0,0,1-2.08-.27c-3.81-1-7.67-2-11.49-2.93a8,8,0,1,1,3.73-15.56c4,1,8,2,11.91,3a8,8,0,0,1-2.07,15.73Zm-221-2.61a8,8,0,0,1-1.88-15.77c4-1,8-1.89,12-2.75A8,8,0,0,1,360,25.72c-3.84.82-7.73,1.71-11.56,2.64A7.77,7.77,0,0,1,346.58,28.59ZM526.35,22.2a7.67,7.67,0,0,1-1.34-.12c-3.89-.65-7.83-1.26-11.72-1.81a8,8,0,1,1,2.23-15.84c4,.57,8.12,1.2,12.15,1.88a8,8,0,0,1-1.32,15.89Zm-138.3-1.63a8,8,0,0,1-1.13-15.92c4-.58,8.12-1.11,12.18-1.59A8,8,0,1,1,401,19c-3.92.46-7.88,1-11.76,1.54A9,9,0,0,1,388.05,20.57Zm96.36-3.41a5.82,5.82,0,0,1-.59,0c-3.93-.28-7.91-.51-11.83-.69a8,8,0,1,1,.72-16c4.06.18,8.19.42,12.26.71a8,8,0,0,1-.56,16Zm-54.31-.63a8,8,0,0,1-.39-16C433.79.34,437.92.2,442,.11a8,8,0,1,1,.34,16c-3.93.09-7.92.23-11.85.42Z" transform="translate(0 -0.11)"/></g></svg>