<svg id="Layer_1" data-name="Layer 1" xmlns="http://www.w3.org/2000/svg" viewBox="0 0 904 903.8"><defs><style>.cls-1{fill:#fcba1e;}.cls-2{fill:#262626;}</style></defs><title>03 - call</title><path class="cls-1" d="M604.6,199.78a9.94,9.94,0,0,0-.77-.7,22.33,22.33,0,0,0-14.4-5.24H298.27a9,9,0,0,0,0,18h276L410.74,325.72a11.49,11.49,0,0,1-13.07,0L234.15,211.82h22.17a9,9,0,1,0,0-18H219a22.3,22.3,0,0,0-14.41,5.25,9.59,9.59,0,0,0-.75.68,22.38,22.38,0,0,0-7.29,16.52v225a22.35,22.35,0,0,0,7.41,16.62,7,7,0,0,0,.57.52A22.31,22.31,0,0,0,219,463.73H589.43a22.34,22.34,0,0,0,14.46-5.3c.21-.17.4-.36.6-.54a22.36,22.36,0,0,0,7.39-16.61v-225a22.35,22.35,0,0,0-7.28-16.51ZM421,340.48l1.06-.74,65.72,45.79a9,9,0,0,0,10.27-14.76l-60.26-42L593.9,220V437.52l-61.4-42.78a9,9,0,0,0-10.28,14.76l52,36.25H234.15l152.18-106,1.06.73a29.55,29.55,0,0,0,33.63,0ZM214.51,220,370.6,328.79,214.51,437.52Zm0,0" transform="translate(147 56.89)"/><path class="cls-1" d="M258.08,658.82a165.27,165.27,0,0,0,64.38.35,9,9,0,0,0-3.39-17.66,147.31,147.31,0,0,1-57.41-.31A310.21,310.21,0,0,1,19.1,398.63,147.7,147.7,0,0,1,59.49,264.41a31.22,31.22,0,0,1,44.1,0L154.13,315a22.11,22.11,0,0,1-2.31,33.27L120.4,371.94c-18.73,14.15-24.42,39.61-12.62,60A329.31,329.31,0,0,0,228.33,552.52c20.41,11.79,45.87,6.12,60-12.62l23.73-31.42a22.11,22.11,0,0,1,33.27-2.31l50.54,50.54a31.2,31.2,0,0,1,0,44.09,147.66,147.66,0,0,1-36.61,26.78,9,9,0,0,0,8.27,16,165.59,165.59,0,0,0,41.05-30,49.21,49.21,0,0,0,0-69.52l-50.54-50.54a40.1,40.1,0,0,0-60.33,4.18L274,529.07c-8.45,11.19-24.28,15.06-36.69,7.87a311.36,311.36,0,0,1-114-114c-7.18-12.46-3.3-28.24,7.89-36.69l31.41-23.72a40.09,40.09,0,0,0,4.2-60.33L116.3,251.7a49.2,49.2,0,0,0-69.51,0A165.63,165.63,0,0,0,1.48,402.22a328.17,328.17,0,0,0,256.6,256.6Zm0,0" transform="translate(147 56.89)"/><path class="cls-2" d="M314.32,846.9a8,8,0,0,1-.16-16c3.95-.09,7.93-.22,11.85-.41a8,8,0,0,1,.76,16c-4.06.2-8.19.34-12.28.42Zm-30.17-.38h-.37c-4.07-.19-8.2-.43-12.27-.73a8,8,0,0,1,1.17-16c3.92.29,7.91.53,11.84.71a8,8,0,0,1-.37,16Zm72.31-2.47a8,8,0,0,1-.91-15.95c3.92-.45,7.87-1,11.76-1.52a8,8,0,0,1,2.26,15.84c-4,.58-8.12,1.11-12.18,1.58C357.07,844,356.76,844.05,356.46,844.05ZM242.1,842.58a8.71,8.71,0,0,1-1.13-.08c-4.05-.58-8.14-1.21-12.15-1.89a8,8,0,0,1,2.68-15.78c3.87.66,7.81,1.27,11.72,1.83a8,8,0,0,1-1.12,15.92Zm156-5.37a8,8,0,0,1-1.66-15.82c3.84-.82,7.73-1.7,11.56-2.63a8,8,0,0,1,3.77,15.55c-4,1-8,1.88-12,2.73A8,8,0,0,1,398.14,837.21Zm-197.53-2.55a7.62,7.62,0,0,1-1.88-.23c-4-.95-8-2-11.91-3A8,8,0,1,1,191,816c3.81,1,7.67,2,11.49,2.93a8,8,0,0,1-1.87,15.78ZM439,826.43a8,8,0,0,1-2.41-15.63c3.76-1.19,7.55-2.45,11.25-3.73a8,8,0,1,1,5.24,15.12c-3.84,1.33-7.77,2.63-11.67,3.86A7.77,7.77,0,0,1,439,826.43Zm-278.93-3.62a8.17,8.17,0,0,1-2.61-.44c-3.87-1.34-7.77-2.75-11.6-4.19a8,8,0,1,1,5.63-15c3.7,1.39,7.46,2.75,11.19,4a8,8,0,0,1-2.61,15.57Zm318.52-11a8,8,0,0,1-3.14-15.36c3.61-1.53,7.25-3.14,10.81-4.77a8,8,0,1,1,6.66,14.55c-3.69,1.69-7.46,3.35-11.21,4.95A8,8,0,0,1,478.58,811.79Zm-357.82-4.7a8,8,0,0,1-3.32-.72c-3.7-1.69-7.44-3.46-11.13-5.27a8,8,0,1,1,7-14.37c3.57,1.74,7.18,3.45,10.75,5.08a8,8,0,0,1-3.33,15.28Zm395.8-13.63a8,8,0,0,1-3.83-15c3.47-1.88,6.94-3.83,10.32-5.79a8,8,0,1,1,8,13.85c-3.51,2-7.11,4-10.7,6A7.94,7.94,0,0,1,516.56,793.46ZM83.17,787.7a8,8,0,0,1-4-1.07c-3.53-2-7.09-4.17-10.57-6.31A8,8,0,1,1,77,766.69c3.36,2.07,6.79,4.11,10.2,6.08a8,8,0,0,1-4,14.93Zm469.47-16.12a8,8,0,0,1-4.47-14.64c3.25-2.18,6.53-4.45,9.73-6.74a8,8,0,0,1,9.29,13c-3.32,2.37-6.72,4.72-10.09,7A8,8,0,0,1,552.64,771.58Zm-505-6.75A7.93,7.93,0,0,1,43,763.34c-3.32-2.37-6.66-4.81-9.92-7.27a8,8,0,0,1,9.64-12.78c3.14,2.38,6.36,4.74,9.57,7a8,8,0,0,1-4.65,14.52Zm538.9-18.46a8,8,0,0,1-5.08-14.18c3-2.49,6.08-5.06,9.05-7.64A8,8,0,1,1,601,736.63c-3.09,2.68-6.25,5.35-9.39,7.93A8,8,0,0,1,586.51,746.37ZM14.39,738.69a8,8,0,0,1-5.23-2C6.08,734.08,3,731.33,0,728.57a8,8,0,1,1,10.8-11.81c2.91,2.66,5.89,5.32,8.85,7.89a8,8,0,0,1-5.24,14Zm603.46-20.63a8,8,0,0,1-5.64-13.68c2.8-2.77,5.59-5.62,8.3-8.46a8,8,0,1,1,11.57,11c-2.8,2.95-5.7,5.9-8.6,8.78A8,8,0,0,1,617.85,718.06Zm-634-8.51A8,8,0,0,1-22,707.07c-2.82-3-5.64-6-8.36-9a8,8,0,0,1,.57-11.3,8,8,0,0,1,11.3.57c2.63,2.91,5.34,5.83,8.06,8.68a8,8,0,0,1-.26,11.31A8,8,0,0,1-16.19,709.55Zm662.57-22.64a8,8,0,0,1-6.14-13.12c2.52-3,5-6.14,7.46-9.22a8,8,0,1,1,12.57,9.9c-2.52,3.2-5.12,6.41-7.74,9.55A8,8,0,0,1,646.38,686.91Zm-690.25-9.25a8,8,0,0,1-6.29-3c-2.53-3.2-5-6.48-7.47-9.75A8,8,0,0,1-56,653.67a8,8,0,0,1,11.2,1.63c2.34,3.15,4.77,6.31,7.2,9.4a8,8,0,0,1-1.33,11.24A8,8,0,0,1-43.87,677.66Zm715.72-24.48a8,8,0,0,1-6.6-12.51c2.22-3.26,4.43-6.59,6.56-9.89a8,8,0,0,1,13.46,8.66c-2.21,3.43-4.5,6.88-6.81,10.25A8,8,0,0,1,671.85,653.18ZM-68.41,643.3a8,8,0,0,1-6.73-3.67c-2.21-3.42-4.4-6.92-6.51-10.4a8,8,0,0,1,2.69-11,8,8,0,0,1,11,2.69c2,3.36,4.15,6.73,6.28,10A8,8,0,0,1-64.08,642,7.91,7.91,0,0,1-68.41,643.3ZM694,617.18a8,8,0,0,1-7-11.87c1.89-3.43,3.77-6.95,5.59-10.48a8,8,0,0,1,14.22,7.35c-1.89,3.65-3.84,7.31-5.81,10.86A8,8,0,0,1,694,617.18ZM-89.57,606.79a8,8,0,0,1-7.11-4.33c-1.87-3.6-3.71-7.29-5.48-11a8,8,0,0,1,3.72-10.68,8,8,0,0,1,10.68,3.72c1.71,3.53,3.49,7.09,5.29,10.57a8,8,0,0,1-3.43,10.78A7.93,7.93,0,0,1-89.57,606.79Zm802.23-27.58A8,8,0,0,1,705.32,568c1.57-3.63,3.11-7.32,4.57-11a8,8,0,1,1,14.85,6c-1.51,3.78-3.11,7.61-4.74,11.37A8,8,0,0,1,712.66,579.21Zm-819.81-10.76a8,8,0,0,1-7.42-5c-1.53-3.79-3-7.65-4.43-11.47a8,8,0,0,1,4.73-10.28A8,8,0,0,1-104,546.41c1.36,3.68,2.79,7.4,4.26,11.06a8,8,0,0,1-4.44,10.4A7.79,7.79,0,0,1-107.15,568.45Zm834.74-28.84a8.15,8.15,0,0,1-2.46-.39A8,8,0,0,1,720,529.15c1.21-3.75,2.38-7.56,3.49-11.33a8,8,0,1,1,15.35,4.5c-1.15,3.91-2.36,7.86-3.62,11.74A8,8,0,0,1,727.59,539.61ZM-121,528.55a8,8,0,0,1-7.67-5.75c-1.15-3.92-2.26-7.9-3.3-11.84a8,8,0,0,1,5.68-9.78,8,8,0,0,1,9.78,5.69c1,3.79,2.08,7.63,3.19,11.42a8,8,0,0,1-5.41,9.93A8.15,8.15,0,0,1-121,528.55Zm859.65-29.71a7.9,7.9,0,0,1-1.73-.19,8,8,0,0,1-6.09-9.53c.85-3.86,1.65-7.77,2.39-11.62a8,8,0,0,1,15.71,3c-.76,4-1.6,8-2.48,12A8,8,0,0,1,738.64,498.84ZM-131,487.5a8,8,0,0,1-7.85-6.49c-.77-4-1.49-8.08-2.16-12.1a8,8,0,0,1,6.6-9.19,8,8,0,0,1,9.19,6.59c.64,3.88,1.34,7.81,2.09,11.67a8,8,0,0,1-6.35,9.37A7.91,7.91,0,0,1-131,487.5Zm876.72-30.3a8.18,8.18,0,0,1-1-.06,8,8,0,0,1-7-8.91c.47-3.93.9-7.89,1.27-11.79a8,8,0,0,1,15.93,1.5c-.38,4-.83,8.15-1.32,12.22A8,8,0,0,1,745.74,457.2ZM-137,445.69a8,8,0,0,1-8-7.24c-.38-4.05-.72-8.17-1-12.25a8,8,0,0,1,7.44-8.53,8,8,0,0,1,8.52,7.44c.27,3.94.6,7.91,1,11.82a8,8,0,0,1-7.2,8.72C-136.47,445.67-136.73,445.69-137,445.69Zm885.82-30.62h-.22a8,8,0,0,1-7.78-8.21c.11-3.92.16-7.91.16-11.86v-.95a8,8,0,0,1,8-8h0a8,8,0,0,1,8,8v1c0,4.11-.06,8.24-.16,12.31A8,8,0,0,1,748.84,415.07ZM-139,403.49a8,8,0,0,1-8-8V395c0-3.93.05-7.9.15-11.81a8,8,0,0,1,8.2-7.79,8,8,0,0,1,7.8,8.2c-.1,3.78-.15,7.61-.15,11.38v.49A8,8,0,0,1-139,403.49Zm886.92-31.63a8,8,0,0,1-8-7.45c-.27-3.9-.59-7.87-1-11.81a8,8,0,1,1,15.92-1.54c.4,4.08.74,8.21,1,12.25a8,8,0,0,1-7.44,8.53A5.06,5.06,0,0,1,747.92,371.86Zm-885-10.56a6.28,6.28,0,0,1-.75,0,8,8,0,0,1-7.22-8.71c.38-4.06.81-8.17,1.3-12.22a8,8,0,0,1,8.9-7,8,8,0,0,1,7,8.9c-.47,3.9-.9,7.87-1.26,11.79A8,8,0,0,1-137.06,361.3ZM743,329.91a8,8,0,0,1-7.88-6.69c-.64-3.89-1.35-7.82-2.1-11.67a8,8,0,1,1,15.71-3.05c.77,4,1.51,8.07,2.18,12.1a8,8,0,0,1-6.59,9.2A7.35,7.35,0,0,1,743,329.91Zm-874.15-10.44a7.69,7.69,0,0,1-1.5-.14A8,8,0,0,1-139,310c.76-4,1.59-8.07,2.46-12.05a8,8,0,0,1,9.52-6.1,8,8,0,0,1,6.11,9.52c-.84,3.84-1.64,7.75-2.38,11.62A8,8,0,0,1-131.15,319.47Zm865.27-30.85a8,8,0,0,1-7.72-5.95c-1-3.79-2.09-7.63-3.21-11.41a8,8,0,0,1,15.35-4.54c1.16,3.93,2.27,7.91,3.32,11.84a8,8,0,0,1-5.68,9.79A8.15,8.15,0,0,1,734.12,288.62Zm-855.4-10.22a7.93,7.93,0,0,1-2.24-.32,8,8,0,0,1-5.44-9.92c1.14-3.91,2.35-7.86,3.61-11.75a8,8,0,0,1,10.06-5.17,8,8,0,0,1,5.17,10.07c-1.21,3.75-2.38,7.56-3.48,11.33A8,8,0,0,1-121.28,278.4Zm842.61-30a8,8,0,0,1-7.5-5.22c-1.36-3.67-2.8-7.39-4.28-11a8,8,0,1,1,14.84-6c1.53,3.8,3,7.65,4.44,11.46a8,8,0,0,1-7.5,10.79Zm-828.83-9.93a8,8,0,0,1-3-.58,8,8,0,0,1-4.46-10.39c1.52-3.8,3.11-7.63,4.73-11.39a8,8,0,0,1,10.51-4.17,8,8,0,0,1,4.18,10.51c-1.56,3.62-3.1,7.32-4.56,11A8,8,0,0,1-107.5,238.43Zm812.26-28.88a8,8,0,0,1-7.21-4.52c-1.7-3.52-3.49-7.07-5.3-10.56a8,8,0,1,1,14.2-7.37c1.88,3.62,3.73,7.3,5.5,11a8,8,0,0,1-3.71,10.68A7.88,7.88,0,0,1,704.76,209.55Zm-794.71-9.62a8,8,0,0,1-3.66-.89,8,8,0,0,1-3.45-10.77c1.88-3.64,3.82-7.3,5.79-10.87a8,8,0,0,1,10.87-3.16,8,8,0,0,1,3.15,10.87c-1.9,3.45-3.78,7-5.58,10.48A8,8,0,0,1-89.95,199.93ZM684.57,172.5a8,8,0,0,1-6.85-3.84c-2-3.34-4.15-6.72-6.29-10A8,8,0,0,1,684.87,150c2.22,3.43,4.41,6.93,6.52,10.39a8,8,0,0,1-6.82,12.16Zm-753.38-9.2A8,8,0,0,1-73.13,162,8,8,0,0,1-75.54,151c2.21-3.43,4.49-6.88,6.8-10.26a8,8,0,0,1,11.11-2.11,8,8,0,0,1,2.11,11.12c-2.23,3.26-4.43,6.59-6.55,9.9A8,8,0,0,1-68.81,163.3Zm729.74-25.77a8,8,0,0,1-6.41-3.22c-2.35-3.13-4.77-6.29-7.22-9.39A8,8,0,0,1,659.85,115c2.54,3.21,5.06,6.49,7.49,9.74a8,8,0,0,1-6.41,12.79Zm-705.22-8.66a8,8,0,0,1-4.94-1.71,8,8,0,0,1-1.35-11.24c2.52-3.21,5.12-6.42,7.73-9.56a8,8,0,0,1,11.27-1,8,8,0,0,1,1,11.26c-2.52,3-5,6.13-7.46,9.23A8,8,0,0,1-44.29,128.87Zm678.37-23.94a8,8,0,0,1-5.93-2.62c-2.64-2.92-5.36-5.84-8.07-8.68a8,8,0,1,1,11.56-11.06c2.82,2.94,5.63,6,8.37,9a8,8,0,0,1-5.93,13.37Zm-650.72-8a8,8,0,0,1-5.51-2.2,8,8,0,0,1-.28-11.31c2.81-3,5.7-5.91,8.6-8.79a8,8,0,0,1,11.31,0A8,8,0,0,1-2.55,86c-2.79,2.78-5.58,5.63-8.29,8.48A8,8,0,0,1-16.64,96.91ZM604.26,75a8,8,0,0,1-5.39-2.09C596,70.25,593,67.6,590,65a8,8,0,0,1,10.47-12.11c3.07,2.66,6.17,5.41,9.19,8.17A8,8,0,0,1,604.26,75ZM13.91,67.73a8,8,0,0,1-5.25-14C11.73,51,14.88,48.36,18,45.76A8,8,0,0,1,28.2,58.12c-3,2.5-6.08,5.07-9,7.65A8,8,0,0,1,13.91,67.73ZM571.74,48a8,8,0,0,1-4.81-1.61c-3.15-2.37-6.37-4.73-9.58-7a8,8,0,0,1,9.28-13c3.32,2.36,6.66,4.8,9.92,7.26A8,8,0,0,1,571.74,48ZM47.06,41.57A8,8,0,0,1,42.4,27.06c3.32-2.37,6.71-4.73,10.08-7a8,8,0,1,1,9,13.26c-3.25,2.2-6.52,4.47-9.72,6.76A8,8,0,0,1,47.06,41.57ZM536.79,24.24a8,8,0,0,1-4.17-1.18C529.26,21,525.83,19,522.41,17a8,8,0,1,1,8-13.87c3.54,2.05,7.1,4.16,10.58,6.3a8,8,0,0,1-4.19,14.82ZM82.52,18.68a8,8,0,0,1-4-14.92c3.53-2,7.13-4.07,10.7-6A8,8,0,1,1,96.84,11.8c-3.44,1.87-6.9,3.82-10.31,5.8A8,8,0,0,1,82.52,18.68ZM499.73,3.87a8,8,0,0,1-3.51-.81C492.68,1.33,489.06-.38,485.48-2a8,8,0,0,1-4-10.6,8,8,0,0,1,10.6-4c3.71,1.69,7.46,3.46,11.14,5.26a8,8,0,0,1,3.68,10.7A8,8,0,0,1,499.73,3.87ZM120-.73a8,8,0,0,1-7.28-4.66A8,8,0,0,1,116.64-16c3.69-1.7,7.46-3.36,11.2-5a8,8,0,0,1,10.5,4.22,8,8,0,0,1-4.22,10.5c-3.61,1.54-7.24,3.15-10.81,4.78A7.89,7.89,0,0,1,120-.73Zm340.9-12.13a8,8,0,0,1-2.81-.52c-3.69-1.38-7.45-2.73-11.19-4a8,8,0,0,1-5-10.17,8,8,0,0,1,10.16-5c3.88,1.34,7.79,2.74,11.61,4.17a8,8,0,0,1,4.68,10.3A8,8,0,0,1,460.88-12.86ZM159.09-16.47a8,8,0,0,1-7.56-5.37A8,8,0,0,1,156.46-32c3.85-1.34,7.78-2.65,11.67-3.88a8,8,0,0,1,10,5.2A8,8,0,0,1,173-20.65c-3.75,1.19-7.53,2.45-11.24,3.74A8.06,8.06,0,0,1,159.09-16.47Zm261.54-9.32a7.83,7.83,0,0,1-2.08-.28c-3.8-1-7.66-2-11.49-2.92a8,8,0,0,1-5.92-9.65,8,8,0,0,1,9.65-5.91c4,.95,8,2,11.91,3a8,8,0,0,1,5.65,9.8A8,8,0,0,1,420.63-25.79Zm-221-2.62a8,8,0,0,1-7.77-6.11,8,8,0,0,1,5.88-9.67c4-1,8-1.89,12-2.74a8,8,0,0,1,9.5,6.14,8,8,0,0,1-6.14,9.5c-3.85.83-7.74,1.72-11.55,2.65A8.36,8.36,0,0,1,199.6-28.41ZM379.37-34.8a8.65,8.65,0,0,1-1.34-.11c-3.89-.66-7.83-1.27-11.72-1.81a8,8,0,0,1-6.81-9,8,8,0,0,1,9-6.81c4,.57,8.12,1.2,12.15,1.88a8,8,0,0,1,6.55,9.22A8,8,0,0,1,379.37-34.8Zm-138.3-1.63a8,8,0,0,1-7.91-6.86,8,8,0,0,1,6.77-9.06c4-.58,8.14-1.12,12.19-1.59a8,8,0,0,1,8.87,7A8,8,0,0,1,254-38c-3.92.46-7.87,1-11.76,1.54A9,9,0,0,1,241.07-36.43Zm96.36-3.4a5.83,5.83,0,0,1-.59,0c-3.92-.28-7.91-.51-11.84-.69a8,8,0,0,1-7.63-8.35,8,8,0,0,1,8.36-7.63c4.07.18,8.2.42,12.26.72a8,8,0,0,1,7.41,8.55A8,8,0,0,1,337.43-39.83Zm-54.32-.64a8,8,0,0,1-8-7.61,8,8,0,0,1,7.6-8.38c4.08-.2,8.21-.34,12.28-.43a8,8,0,0,1,8.18,7.82,8,8,0,0,1-7.83,8.18c-3.93.08-7.92.22-11.85.41Z" transform="translate(147 56.89)"/></svg>