<?xml version="1.0" encoding="UTF-8"?>
<svg width="20px" height="16px" viewBox="0 0 20 16" version="1.1" xmlns="http://www.w3.org/2000/svg" xmlns:xlink="http://www.w3.org/1999/xlink">
    <!-- Generator: Sketch 52.3 (67297) - http://www.bohemiancoding.com/sketch -->
    <title>thread icon</title>
    <desc>Created with Sketch.</desc>
    <g id="mockups-thread-icon" stroke="none" stroke-width="1" fill="none" fill-rule="evenodd">
        <g id="11---Contact-View" transform="translate(-141.000000, -1297.000000)" fill="#878789">
            <g id="thread-icon" transform="translate(141.000000, 1297.000000)">
                <path d="M17.0000191,12.5714436 L17.0000191,6.26466011 C17.700649,5.78271493 18.4048952,5.30554864 19.1071609,4.8303629 C19.4285898,4.60714835 19.7321616,4.34821947 20.0000191,4.05357626 L20.0000191,11.1428704 C20.0000191,11.9285856 19.3571612,12.5714436 18.5714459,12.5714436 L17.0000191,12.5714436 Z M17.0000191,4.89382133 L17.0000191,4.42857313 C17.0000191,3.64285791 16.3571612,3 15.5714459,3 L4.61204209,3 C4.26673143,2.56687142 4,2.06688672 4,1.62500194 C4,0.750000894 4.47321485,0 5.42857313,0 L18.5714459,0 C19.3482326,0 20.0000191,0.642857909 20.0000191,1.42857313 C20.0000191,2.42857432 19.2589468,3.33036111 18.4732315,3.87500462 C17.9828777,4.21448033 17.4914173,4.55395604 17.0000191,4.89382132 Z" id="Combined-Shape"></path>
                <path d="M14.8571606,14.1428704 L14.8571606,7.28571939 C14.6696603,7.50000536 14.464303,7.69643417 14.2410884,7.87500581 C12.9643012,8.85714984 11.6785854,9.85715103 10.4375124,10.8928666 C9.76786879,11.4553672 8.93751065,12.142868 8.00893812,12.142868 L7.99108095,12.142868 C7.06250842,12.142868 6.23215029,11.4553672 5.56250663,10.8928666 C4.32143372,9.85715103 3.0357179,8.85714984 1.75893067,7.87500581 C1.53571612,7.69643417 1.33035873,7.50000536 1.14285851,7.28571939 L1.14285851,14.1428704 C1.14285851,14.2946563 1.27678724,14.4285851 1.42857313,14.4285851 L14.5714459,14.4285851 C14.7232318,14.4285851 14.8571606,14.2946563 14.8571606,14.1428704 Z M14.8571606,5.42857313 C14.8571606,5.20535858 14.9107321,5.14285851 14.5714459,5.14285851 L1.42857313,5.14285851 C1.27678724,5.14285851 1.14285851,5.27678724 1.14285851,5.42857313 C1.14285851,6.44643149 1.65178768,6.33036111 2.45536007,6.96429044 C3.65179007,7.90179156 4.84822007,8.84822126 6.03572148,9.79465096 C6.50893633,10.17858 7.36608021,11.0000095 7.99108095,11.0000095 L8.00893812,11.0000095 C8.63393886,11.0000095 9.49108274,10.17858 9.96429759,9.79465096 C11.151799,8.84822126 12.348229,7.90179156 13.544659,6.96429044 C14.1250168,6.50893275 14.8571606,6.18750261 14.8571606,5.42857313 Z M16.0000191,5.42857313 L16.0000191,14.1428704 C16.0000191,14.9285856 15.3571612,15.5714436 14.5714459,15.5714436 L1.42857313,15.5714436 C0.642857909,15.5714436 -1.77635684e-15,14.9285856 -1.77635684e-15,14.1428704 L-1.77635684e-15,5.42857313 C-1.77635684e-15,4.64285791 0.642857909,4 1.42857313,4 L14.5714459,4 C15.3571612,4 16.0000191,4.64285791 16.0000191,5.42857313 Z" id="-copy"></path>
            </g>
        </g>
    </g>
</svg>
