<svg xmlns="http://www.w3.org/2000/svg" xmlns:xlink="http://www.w3.org/1999/xlink" width="95" zoomAndPan="magnify" viewBox="0 0 71.25 71.25" height="95" preserveAspectRatio="xMidYMid meet" version="1.0"><defs><clipPath id="922926cf08"><path d="M 0 0 L 70.507812 0 L 70.507812 70.507812 L 0 70.507812 Z M 0 0 " clip-rule="nonzero"/></clipPath></defs><g clip-path="url(#922926cf08)"><path fill="#b48c50" d="M 67.886719 28.980469 L 41.527344 2.621094 C 38.082031 -0.824219 32.433594 -0.824219 28.980469 2.621094 L 2.621094 28.980469 C -0.824219 32.425781 -0.824219 38.074219 2.621094 41.527344 L 28.980469 67.886719 C 32.425781 71.332031 38.074219 71.332031 41.527344 67.886719 L 67.886719 41.527344 C 71.332031 38.074219 71.332031 32.433594 67.886719 28.980469 Z M 52.808594 30.246094 L 30.246094 52.808594 C 26.800781 56.257812 21.152344 56.257812 17.699219 52.808594 C 14.25 49.363281 14.25 43.714844 17.699219 40.261719 L 40.261719 17.699219 C 43.707031 14.25 49.355469 14.25 52.808594 17.699219 C 56.257812 21.152344 56.257812 26.800781 52.808594 30.246094 Z M 52.808594 30.246094 " fill-opacity="1" fill-rule="nonzero"/></g></svg>
