<svg id="Layer_1" data-name="Layer 1" xmlns="http://www.w3.org/2000/svg" viewBox="0 0 592.82 78.79"><defs><style>.cls-1{fill:#cb5b28;}.cls-2{fill:#fcba1e;}.cls-3{fill:#df9026;}.cls-4{fill:#ac722a;}.cls-5{fill:#ffc841;}</style></defs><title>orocommerce_logo</title><path class="cls-1" d="M677.71,392.07h-1.57v-8.25h-2.82v-1.34h7.21v1.34h-2.82Z" transform="translate(-99.05 -356.46)"/><path class="cls-1" d="M686.15,392.07l-2.79-8h-.05c.07,1.19.11,2.31.11,3.34v4.67H682v-9.59h2.21l2.66,7.62h0l2.74-7.62h2.22v9.59h-1.51v-4.75c0-.47,0-1.09,0-1.86s.05-1.23.06-1.39h-.05l-2.88,8Z" transform="translate(-99.05 -356.46)"/><path class="cls-2" d="M195.53,406.32V388.85c0-8.88,4.41-14.31,20.21-14.31S236,379.84,236,388.73v17.41c0,8.88-4.41,14.38-20.21,14.38S195.53,415.2,195.53,406.32Zm32.73-1V389.63c0-6.74-2.68-9-12.52-9s-12.58,2.39-12.58,9.13v15.67c0,6.74,2.68,9,12.58,9S228.26,412,228.26,405.31Z" transform="translate(-99.05 -356.46)"/><path class="cls-2" d="M241.91,413.77l3.34-.12V381.4l-3.34-.12v-5.79h21.41c11.09,0,15.32,2.69,15.32,8.89v5.25c0,4.89-3,8.4-9.48,8.82,5.43.48,9.18,1.37,9.66,6.44l.84,8.76,3.57.19v5.72H272.91a2.75,2.75,0,0,1-.82-2.09L271.25,407c-.36-4.59-3.58-5.79-11.33-5.79h-7v12.4l3.27.12v5.79H241.91Zm19.92-18.42c7.27,0,9.3-1.55,9.3-5.36v-3.53c0-3.57-1.38-5.06-9.3-5.06H253v14Z" transform="translate(-99.05 -356.46)"/><path class="cls-2" d="M287.59,406.32V388.85c0-8.88,4.41-14.31,20.2-14.31S328,379.84,328,388.73v17.41c0,8.88-4.42,14.38-20.22,14.38S287.59,415.2,287.59,406.32Zm32.72-1V389.63c0-6.74-2.68-9-12.52-9s-12.58,2.39-12.58,9.13v15.67c0,6.74,2.69,9,12.58,9S320.31,412,320.31,405.31Z" transform="translate(-99.05 -356.46)"/><path class="cls-1" d="M335.33,406.56v-18c0-8.21,4.5-14.08,18-14.08,10.48,0,13.89,3.77,14.67,7.61l.3-6.47h4.07V389.9h-5v-1.49c0-5.69-2.81-9.65-13.36-9.65s-13.29,3.72-13.29,10.36V406c0,6.77,2.87,10.3,13.29,10.3s13.36-3.71,13.36-9.88v-1.92h4.91v1.86c0,7.73-3.77,14.2-18.27,14.2S335.33,414.88,335.33,406.56Z" transform="translate(-99.05 -356.46)"/><path class="cls-1" d="M377.71,407.88V395.05c0-7.54,3.83-12.57,16.23-12.57s16.17,4.07,16.17,12.57v12.83c0,7.55-3.83,12.64-16.17,12.64S377.71,416.38,377.71,407.88Zm27.19-.42V395.54c0-6.05-2.4-8.87-11-8.87s-11.09,3.6-11.09,8.87v11.92c0,6,2.52,8.86,11.09,8.86S404.9,412.67,404.9,407.46Z" transform="translate(-99.05 -356.46)"/><path class="cls-1" d="M446.63,389.12c1.07-4.49,4.61-6.64,12.15-6.64,8.15,0,12.05,2.69,12.05,9.64v23.42l3.59.13v3.89H461.9v-3.89l3.77-.13V392.9c0-4.61-2.27-6.35-8.44-6.35S447,388.71,447,394.82v20.72l3.78.13v3.89h-12.7v-3.89l3.77-.13V392.9c0-4.61-2.21-6.35-8.44-6.35s-10.19,2.16-10.19,8.27v20.72l3.77.13v3.89H414.58v-3.89l3.47-.13V387.63l-3.47-.12v-4.07H422a1,1,0,0,1,1,1.08l.17,4.37h.12c1.08-4.31,4.26-6.41,11.81-6.41,7.18,0,10.84,1.92,11.56,6.64Z" transform="translate(-99.05 -356.46)"/><path class="cls-1" d="M511,389.12c1.08-4.49,4.61-6.64,12.16-6.64,8.15,0,12,2.69,12,9.64v23.42l3.6.13v3.89H526.3v-3.89l3.78-.13V392.9c0-4.61-2.28-6.35-8.44-6.35s-10.25,2.16-10.25,8.27v20.72l3.78.13v3.89h-12.7v-3.89l3.77-.13V392.9c0-4.61-2.22-6.35-8.45-6.35s-10.18,2.16-10.18,8.27v20.72l3.77.13v3.89H479v-3.89l3.48-.13V387.63l-3.48-.12v-4.07h7.37a1,1,0,0,1,1,1.08l.18,4.37h.12c1.08-4.31,4.25-6.41,11.8-6.41,7.19,0,10.85,1.92,11.56,6.64Z" transform="translate(-99.05 -356.46)"/><path class="cls-1" d="M542.93,407.88V395.05c0-7.6,3.89-12.57,15.93-12.57s15.28,4.25,15.28,12.57v8a1,1,0,0,1-1,1.09h-25v3.59c0,5.93,2.69,8.8,11.2,8.8,7.49,0,10-2.81,10-5.69v-.3h4.86v.6c0,5.34-4.26,9.41-15,9.41C546.94,420.52,542.93,416.38,542.93,407.88Zm26.24-7.25v-5.52c0-5.62-1.86-8.68-10.25-8.68s-10.84,3.66-10.84,8.68v5.52Z" transform="translate(-99.05 -356.46)"/><path class="cls-1" d="M578.78,415.67l3.66-.13V387.63l-3.66-.12v-4.07h7.37c.66,0,1,.42,1.08,1.08l.23,5.38h.13c.41-4.78,3.71-7.42,7.91-7.42a6.65,6.65,0,0,1,3.11.6V388a6.68,6.68,0,0,0-3.54-.78c-4.25,0-7.48,2.52-7.55,9.11v19.22l4,.13v3.89h-12.7Z" transform="translate(-99.05 -356.46)"/><path class="cls-1" d="M602.54,407.88V395.05c0-7.54,4.19-12.57,14.79-12.57,6.36,0,10.78,1.86,11.63,6.83l.17-5.75H633v12.82h-4.79V395c0-6.89-4.92-8.33-9.65-8.33-8.2,0-10.78,3.6-10.78,8.87v11.92c0,6,2.58,8.86,10.78,8.86,7.37,0,9.65-2.87,9.65-6.41v-3H633v3.77c0,5.27-4.38,9.83-14.68,9.83C606.61,420.52,602.54,416.38,602.54,407.88Z" transform="translate(-99.05 -356.46)"/><path class="cls-1" d="M638.19,407.88V395.05c0-7.6,3.89-12.57,15.93-12.57s15.28,4.25,15.28,12.57v8a1,1,0,0,1-1,1.09h-25v3.59c0,5.93,2.69,8.8,11.2,8.8,7.49,0,10-2.81,10-5.69v-.3h4.85v.6c0,5.34-4.25,9.41-15,9.41C642.2,420.52,638.19,416.38,638.19,407.88Zm26.24-7.25v-5.52c0-5.62-1.86-8.68-10.25-8.68s-10.84,3.66-10.84,8.68v5.52Z" transform="translate(-99.05 -356.46)"/><path class="cls-2" d="M116.26,405.36l32.15-31.52a8.75,8.75,0,0,1,12.38.13L146.2,359.08a8.76,8.76,0,0,0-12.38-.12l-32.15,31.52a8.75,8.75,0,0,0-.12,12.38l14.59,14.88A8.76,8.76,0,0,1,116.26,405.36Z" transform="translate(-99.05 -356.46)"/><path class="cls-3" d="M128.52,417.87l32.15-31.52a8.76,8.76,0,0,0,.12-12.38l14.59,14.88a8.75,8.75,0,0,1-.12,12.38l-32.15,31.52a8.76,8.76,0,0,1-12.38-.12l-14.59-14.89A8.75,8.75,0,0,0,128.52,417.87Z" transform="translate(-99.05 -356.46)"/><path class="cls-4" d="M175.38,388.85,160.79,374a8.76,8.76,0,0,1-.12,12.38l-.9.87,8.47,8.63a8.76,8.76,0,0,1-.12,12.38l7.14-7A8.75,8.75,0,0,0,175.38,388.85Z" transform="translate(-99.05 -356.46)"/><path class="cls-5" d="M139.05,366.09l8.47,8.63.89-.88a8.75,8.75,0,0,1,12.38.13L146.2,359.08a8.76,8.76,0,0,0-12.38-.12l-.9.88Z" transform="translate(-99.05 -356.46)"/></svg>