<svg xmlns="http://www.w3.org/2000/svg" viewBox="0 0 304 38">
    <path fill="#b48c50" d="M47.863 19c0-8.188 6.067-14.172 14.364-14.172 8.296 0 14.375 5.984 14.375 14.172s-6.063 14.172-14.375 14.172c-8.297 0-14.364-5.984-14.364-14.172Zm14.364 10.734c6.222 0 10.765-4.543 10.765-10.734S68.45 8.266 62.227 8.266c-6.223 0-10.77 4.543-10.77 10.734s4.547 10.734 10.77 10.734Zm25.14-16.687c1.254 0 2.313.27 3.453.855v3.45c-1.011-.665-2.12-1.012-3.215-1.012-2.421 0-3.957 1.805-3.957 4.703v11.668h-3.453V20.695c0-4.593 2.868-7.648 7.172-7.648ZM92.61 23.07c0-5.797 4.386-10.023 10.37-10.023 5.985 0 10.372 4.226 10.372 10.023 0 5.825-4.387 10.102-10.372 10.102-5.984 0-10.37-4.262-10.37-10.102Zm10.37 6.809c3.957 0 6.856-2.867 6.856-6.777s-2.898-6.778-6.856-6.778c-3.957 0-6.855 2.852-6.855 6.778 0 3.925 2.898 6.777 6.855 6.777ZM115.79 19c0-8.266 5.905-14.172 14.17-14.172 2.9 0 5.29.777 7.712 2.473v4.148c-2.313-2.156-4.734-3.168-7.633-3.168-6.113 0-10.656 4.574-10.656 10.735 0 6.144 4.543 10.734 10.687 10.734 2.79 0 5.164-1.012 7.602-3.164v4.148c-2.422 1.723-4.781 2.47-7.711 2.47-8.266-.032-14.172-5.938-14.172-14.204Zm24.51 4.07c0-5.797 4.384-10.023 10.372-10.023 5.984 0 10.367 4.226 10.367 10.023 0 5.825-4.383 10.102-10.367 10.102-5.988 0-10.371-4.262-10.371-10.102Zm10.372 6.809c3.957 0 6.855-2.867 6.855-6.777s-2.898-6.778-6.855-6.778c-3.961 0-6.86 2.852-6.86 6.778 0 3.925 2.899 6.777 6.86 6.777Zm21.878-16.832c3.06 0 5.481 1.566 6.731 4.226 1.094-2.66 3.531-4.226 6.649-4.226 4.547 0 7.84 3.324 7.84 8.105v11.543h-3.454V21.152c0-2.863-1.836-4.812-4.496-4.812-2.82 0-4.812 1.965-4.812 4.812v11.543h-3.453V21.152c0-2.863-2.043-4.812-4.782-4.812-2.738 0-4.543 1.965-4.543 4.812v11.543h-3.453V21.152c.032-4.78 3.325-8.105 7.774-8.105Zm33.598 0c3.059 0 5.48 1.566 6.73 4.226 1.095-2.66 3.532-4.226 6.65-4.226 4.546 0 7.84 3.324 7.84 8.105v11.543h-3.454V21.152c0-2.863-1.836-4.812-4.496-4.812-2.816 0-4.813 1.965-4.813 4.812v11.543h-3.453V21.152c0-2.863-2.043-4.812-4.78-4.812-2.74 0-4.544 1.965-4.544 4.812v11.543h-3.437V21.152c0-4.78 3.293-8.105 7.757-8.105Zm24.989 9.785c0-5.637 4.273-9.785 9.988-9.785 4.277 0 7.523 2.344 8.96 6.144L237.09 28.2c1.25 1.063 2.894 1.68 4.812 1.68 2.075 0 3.801-.715 6.192-2.504v3.676c-2.203 1.488-4.117 2.12-6.461 2.12-6.031 0-10.496-4.417-10.496-10.339Zm4.097 2.816 10.578-7.312c-1.14-1.3-2.738-1.996-4.734-1.996-3.8 0-6.43 2.582-6.43 6.43a7.09 7.09 0 0 0 .586 2.878Zm25.145-12.601c1.25 0 2.312.27 3.453.855v3.45c-1.016-.665-2.121-1.012-3.215-1.012-2.422 0-3.957 1.805-3.957 4.703v11.668h-3.453V20.695c0-4.593 2.867-7.648 7.172-7.648Zm5.242 10.023c0-5.875 4.383-10.023 10.527-10.023 1.836 0 3.215.426 5.13 1.566v3.723c-1.567-1.379-3.165-1.996-5.098-1.996-4.149 0-7.043 2.738-7.043 6.73 0 4.035 2.894 6.809 7.043 6.809 1.996 0 3.675-.715 5.164-2.156v3.722c-1.758 1.25-3.246 1.727-5.29 1.727-6.081 0-10.433-4.18-10.433-10.102Zm18.633-.238c0-5.637 4.277-9.785 9.992-9.785 4.277 0 7.52 2.344 8.961 6.144L290.211 28.2c1.25 1.063 2.894 1.68 4.812 1.68 2.075 0 3.801-.715 6.192-2.504v3.676c-2.203 1.488-4.117 2.12-6.461 2.12-6.031 0-10.5-4.417-10.5-10.339Zm4.117 2.816 10.578-7.312c-1.14-1.3-2.738-1.996-4.734-1.996-3.8 0-6.43 2.582-6.43 6.43 0 1.043.192 2.027.586 2.878ZM36.953 15.66 22.91 1.613a4.739 4.739 0 0 0-6.68 0L2.168 15.66a4.739 4.739 0 0 0 0 6.68L16.23 36.402a4.739 4.739 0 0 0 6.68 0l14.043-14.047c1.84-1.851 1.84-4.859 0-6.695Zm-8.027.664L16.91 28.34c-1.836 1.84-4.844 1.84-6.683 0a4.739 4.739 0 0 1 0-6.68l12.02-12.02a4.739 4.739 0 0 1 6.679 0c1.84 1.84 1.84 4.848 0 6.684Zm0 0"/>
</svg>
